<svg preserveAspectRatio="none" width="100%" height="100%" overflow="visible" style="display: block;" viewBox="0 0 141.995 144.999" fill="none" xmlns="http://www.w3.org/2000/svg">
<g id="Files_Not_Found">
<path id="Path 37010" d="M141.995 73.7818C142.021 89.8677 136.595 105.485 126.608 118.07C113.595 134.472 93.526 144.999 70.9946 144.999C48.4743 144.999 28.3945 134.473 15.3928 118.07C7.09159 107.581 1.90687 94.9571 0.433634 81.6466C-1.0396 68.3361 1.25834 54.8786 7.06374 42.8186C12.8691 30.7586 21.9468 20.5847 33.2548 13.4646C44.5629 6.34442 57.6432 2.56651 70.9946 2.5644C110.327 2.5644 141.995 34.56 141.995 73.7818Z" fill="var(--fill-0, #D6DCE8)"/>
<path id="Path 37011" d="M125.988 40.5656C128.002 40.5656 129.934 41.368 131.358 42.7963C132.781 44.2246 133.581 46.1619 133.581 48.1818V111.912C133.579 114.667 132.486 117.309 130.544 119.257C128.602 121.205 125.968 122.301 123.222 122.303H28.8333C27.472 122.304 26.1238 122.036 24.8658 121.515C23.6078 120.993 22.4645 120.228 21.5014 119.263C20.5383 118.298 19.7742 117.152 19.2528 115.891C18.7313 114.629 18.4627 113.277 18.4623 111.912V34.0122C18.4624 31.9923 19.2624 30.0551 20.6863 28.6269C22.1103 27.1986 24.0416 26.3963 26.0553 26.3963H54.1029C55.1607 26.3963 56.2068 26.618 57.1742 27.0471C58.1416 27.4763 59.009 28.1035 59.7206 28.8886L68.0469 38.0731C68.7586 38.8581 69.6259 39.4853 70.5933 39.9145C71.5607 40.3437 72.6069 40.5654 73.6647 40.5654L125.988 40.5656Z" fill="url(#paint0_linear_1138_19936)"/>
<path id="Path 37012" d="M92.2521 55.7021C92.1337 56.198 91.9191 56.6655 91.6204 57.0781C91.3217 57.4907 90.9449 57.8401 90.5115 58.1065C90.0781 58.3729 89.5965 58.551 89.0945 58.6306C88.5924 58.7101 88.0796 58.6896 87.5854 58.5703L54.4656 50.5928C53.9713 50.474 53.5052 50.2587 53.0939 49.9591C52.6826 49.6596 52.3342 49.2816 52.0686 48.8469C51.8031 48.4121 51.6255 47.9292 51.5462 47.4256C51.4668 46.922 51.4872 46.4076 51.6062 45.9119L61.8849 2.97597C62.0033 2.48012 62.2179 2.01255 62.5166 1.59998C62.8153 1.18741 63.1921 0.837949 63.6255 0.571568C64.0589 0.305188 64.5405 0.127118 65.0425 0.0475416C65.5446 -0.0320351 66.0574 -0.0115577 66.5516 0.107803L90.1913 5.80185C90.3846 5.84886 90.5743 5.90987 90.7588 5.98442C91.4646 6.27629 92.0682 6.77157 92.4933 7.40761L99.888 18.4203C100.326 19.0714 100.556 19.8413 100.545 20.6268C100.547 21.4301 100.87 19.5583 92.2521 55.7021Z" fill="var(--fill-0, #F9FAFD)"/>
<path id="Rectangle 147954" d="M67.7141 5.74224L67.3355 7.31985L83.6464 11.2586L84.0251 9.68097L67.7141 5.74224Z" fill="var(--fill-0, #D6DCE8)"/>
<path id="Rectangle 147955" d="M58.853 42.7574L58.4744 44.335L69.804 47.0709L70.1827 45.4933L58.853 42.7574Z" fill="var(--fill-0, #D6DCE8)"/>
<path id="Rectangle 147956" d="M71.975 45.9175L71.5963 47.4951L73.3282 47.9133L73.7068 46.3357L71.975 45.9175Z" fill="var(--fill-0, #D6DCE8)"/>
<path id="Rectangle 147957" d="M66.8367 9.40888L66.458 10.9865L75.7692 13.2349L76.1479 11.6573L66.8367 9.40888Z" fill="var(--fill-0, #D6DCE8)"/>
<path id="Path 37013" d="M100.545 20.6269L89.8004 18.0387C89.3173 17.9223 88.9 17.6182 88.6404 17.1932C88.3808 16.7682 88.3002 16.2572 88.4162 15.7725L90.759 5.98458C91.4648 6.27645 92.0684 6.77173 92.4935 7.40777L99.8882 18.4205C100.326 19.0716 100.556 19.8415 100.545 20.6269Z" fill="url(#paint1_linear_1138_19936)"/>
<path id="Path 37014" d="M67.2282 27.4533C66.7667 29.3839 66.8863 31.4084 67.5719 33.2708C68.2575 35.1332 69.4782 36.7499 71.0798 37.9163C72.6814 39.0828 74.5918 39.7467 76.5696 39.8241C78.5473 39.9015 80.5035 39.3889 82.1908 38.3511C83.8781 37.3133 85.2207 35.7969 86.0489 33.9937C86.877 32.1906 87.1535 30.1815 86.8433 28.2208C86.5331 26.26 85.6502 24.4355 84.3063 22.978C82.9624 21.5205 81.2178 20.4955 79.2931 20.0326C78.0151 19.7242 76.689 19.6716 75.3908 19.8778C74.0925 20.084 72.8475 20.5448 71.7269 21.234C70.6064 21.9233 69.6323 22.8273 68.8603 23.8945C68.0884 24.9616 67.5338 26.1709 67.2282 27.4533Z" fill="url(#paint2_linear_1138_19936)"/>
<path id="Path 37015" d="M76.4192 32.0528C76.1984 31.9996 76.0077 31.8606 75.889 31.6664C75.7704 31.4722 75.7335 31.2387 75.7865 31.0172C75.8722 30.8476 75.9696 28.854 77.9515 28.5366C78.3038 28.4789 78.6303 28.315 78.8875 28.0667C79.1447 27.8184 79.3204 27.4974 79.3913 27.1465C79.4705 26.7142 79.3877 26.2679 79.1586 25.8931C78.9296 25.5184 78.5706 25.2418 78.1506 25.1166C77.9239 25.0521 77.6866 25.0343 77.4528 25.0642C77.2191 25.0941 76.9938 25.1711 76.7905 25.2906C76.5872 25.4101 76.4101 25.5696 76.2699 25.7596C76.1296 25.9495 76.0291 26.1659 75.9744 26.3958C75.9491 26.5064 75.9023 26.611 75.8365 26.7034C75.7707 26.7958 75.6873 26.8741 75.5911 26.934C75.4949 26.9938 75.3879 27.034 75.2762 27.0521C75.1644 27.0702 75.0502 27.0658 74.9401 27.0394C74.8301 27.0129 74.7263 26.9648 74.6349 26.8979C74.5435 26.831 74.4662 26.7465 74.4075 26.6494C74.3489 26.5523 74.31 26.4446 74.2931 26.3323C74.2762 26.22 74.2817 26.1055 74.3092 25.9954C74.4551 25.384 74.7638 24.8237 75.2023 24.3745C75.6408 23.9252 76.1926 23.6038 76.799 23.4446C77.4054 23.2853 78.0434 23.2942 78.6452 23.4702C79.2469 23.6463 79.7897 23.9829 80.2156 24.4441C80.6415 24.9054 80.9346 25.474 81.0636 26.0893C81.1926 26.7045 81.1526 27.3434 80.9479 27.9376C80.7432 28.5319 80.3815 29.0592 79.9014 29.4634C79.4213 29.8676 78.8408 30.1335 78.2218 30.2326C77.5104 30.3467 77.5711 31.1254 77.4518 31.4177C77.4256 31.5274 77.3781 31.6309 77.312 31.7222C77.2459 31.8135 77.1626 31.8909 77.0667 31.9498C76.9708 32.0088 76.8642 32.0483 76.7531 32.0659C76.642 32.0836 76.5286 32.0792 76.4192 32.0528ZM77.0099 34.5793C76.9565 34.8038 76.8379 35.0074 76.669 35.1643C76.5002 35.3212 76.2888 35.4243 76.0615 35.4606C75.8342 35.4969 75.6013 35.4647 75.3922 35.3681C75.1832 35.2716 75.0074 35.1149 74.8871 34.9181C74.7669 34.7213 74.7076 34.493 74.7167 34.2624C74.7258 34.0317 74.803 33.8089 74.9384 33.6223C75.0738 33.4356 75.2614 33.2934 75.4775 33.2138C75.6935 33.1341 75.9282 33.1206 76.1519 33.1748C76.451 33.2475 76.7092 33.4361 76.8701 33.6992C77.0309 33.9624 77.0814 34.2787 77.0104 34.5791L77.0099 34.5793Z" fill="var(--fill-0, white)"/>
<g id="Group 463">
<path id="Path 37016" d="M140.638 56.9958L128.102 81.6354C127.921 81.9926 127.671 82.3104 127.367 82.5707C127.063 82.831 126.711 83.0286 126.33 83.1522C125.95 83.2758 125.549 83.3231 125.151 83.2913C124.753 83.2594 124.364 83.1491 124.008 82.9667L100.153 70.7548C99.7965 70.5728 99.4796 70.3221 99.2202 70.0172C98.9607 69.7122 98.7637 69.359 98.6405 68.9776C98.5172 68.5962 98.4701 68.1942 98.5019 67.7946C98.5336 67.395 98.6436 67.0055 98.8255 66.6486L114.56 35.7219C114.741 35.3647 114.991 35.0469 115.295 34.7866C115.599 34.5264 115.951 34.3288 116.332 34.2051C116.712 34.0815 117.113 34.0342 117.511 34.066C117.909 34.0979 118.298 34.2082 118.654 34.3906L135.681 43.1069C135.82 43.1785 135.954 43.2602 136.082 43.3513C136.568 43.7046 136.938 44.1947 137.147 44.7594L140.779 54.5441C140.995 55.1228 141.029 55.7537 140.877 56.3523C140.823 56.5756 140.743 56.7916 140.638 56.9958Z" fill="var(--fill-0, #F9FAFD)"/>
<path id="Rectangle 147958" d="M118.508 38.9131L117.93 40.0496L129.683 46.0658L130.261 44.9294L118.508 38.9131Z" fill="var(--fill-0, #D6DCE8)"/>
<path id="Rectangle 147959" d="M104.943 65.5738L104.365 66.7102L112.529 70.8891L113.107 69.7527L104.943 65.5738Z" fill="var(--fill-0, #D6DCE8)"/>
<path id="Rectangle 147960" d="M114.395 70.4127L113.817 71.5491L115.065 72.1879L115.643 71.0515L114.395 70.4127Z" fill="var(--fill-0, #D6DCE8)"/>
<path id="Rectangle 147961" d="M117.163 41.5533L116.585 42.6897L123.295 46.1243L123.873 44.9879L117.163 41.5533Z" fill="var(--fill-0, #D6DCE8)"/>
<path id="Path 37017" d="M140.877 56.3517L133.138 52.3897C132.965 52.3015 132.812 52.1802 132.686 52.0325C132.561 51.8849 132.466 51.7139 132.406 51.5293C132.346 51.3447 132.323 51.1501 132.339 50.9567C132.354 50.7632 132.407 50.5747 132.495 50.4019L136.083 43.3514C136.569 43.7048 136.939 44.1948 137.148 44.7596L140.78 54.5443C140.996 55.1228 141.029 55.7534 140.877 56.3517Z" fill="url(#paint3_linear_1138_19936)"/>
<path id="Path 37018" d="M114.154 55.4206C113.447 56.8113 113.167 58.3811 113.35 59.9315C113.532 61.4818 114.169 62.9431 115.179 64.1305C116.19 65.3178 117.529 66.178 119.026 66.6022C120.524 67.0265 122.114 66.9957 123.594 66.5137C125.074 66.0318 126.379 65.1204 127.343 63.8947C128.307 62.669 128.887 61.1842 129.009 59.628C129.132 58.0717 128.792 56.5139 128.032 55.1516C127.272 53.7893 126.126 52.6837 124.739 51.9745C123.819 51.5028 122.815 51.2178 121.785 51.1358C120.754 51.0537 119.718 51.1763 118.735 51.4963C117.752 51.8164 116.841 52.3277 116.055 53.0011C115.269 53.6745 114.623 54.4966 114.154 55.4206Z" fill="url(#paint4_linear_1138_19936)"/>
<path id="Path 37019" d="M120.338 60.6336C120.179 60.5521 120.058 60.4107 120.003 60.2403C119.948 60.0699 119.963 59.8846 120.044 59.7251L120.267 59.2847C120.442 58.9408 120.714 58.6568 121.05 58.4686C121.386 58.2804 121.77 58.1966 122.154 58.2277C122.433 58.2487 122.713 58.1837 122.955 58.0413C123.197 57.899 123.391 57.686 123.509 57.4309C123.649 57.115 123.668 56.7585 123.561 56.4298C123.455 56.1011 123.231 55.8234 122.933 55.6501C122.772 55.5591 122.593 55.5019 122.409 55.4817C122.225 55.4615 122.039 55.4789 121.862 55.5327C121.684 55.5866 121.52 55.6758 121.378 55.795C121.236 55.9143 121.119 56.0611 121.035 56.2266C120.954 56.3861 120.813 56.5068 120.643 56.5621C120.473 56.6173 120.288 56.6026 120.129 56.5212C119.97 56.4398 119.85 56.2983 119.795 56.1279C119.74 55.9575 119.754 55.7722 119.835 55.6126C120.002 55.2853 120.233 54.995 120.514 54.7592C120.795 54.5234 121.12 54.347 121.471 54.2404C121.821 54.1339 122.19 54.0995 122.554 54.1392C122.918 54.179 123.271 54.2921 123.59 54.4718C124.132 54.7755 124.554 55.2559 124.786 55.8332C125.018 56.4104 125.047 57.05 124.867 57.6457C124.687 58.2414 124.309 58.7576 123.797 59.1086C123.284 59.4596 122.668 59.6243 122.049 59.5755C121.931 59.5656 121.813 59.5911 121.709 59.6487C121.605 59.7064 121.521 59.7936 121.467 59.8993L121.243 60.3397C121.162 60.4991 121.021 60.6196 120.851 60.6747C120.681 60.7298 120.497 60.715 120.338 60.6336ZM120.325 62.6741C120.243 62.836 120.115 62.9698 119.957 63.0586C119.799 63.1474 119.619 63.1872 119.438 63.173C119.258 63.1588 119.086 63.0912 118.944 62.9787C118.802 62.8663 118.696 62.7141 118.64 62.5414C118.584 62.3687 118.581 62.1832 118.63 62.0086C118.679 61.8339 118.779 61.6778 118.917 61.5601C119.055 61.4424 119.224 61.3683 119.404 61.3473C119.584 61.3264 119.766 61.3593 119.927 61.4421C120.142 61.5531 120.305 61.745 120.379 61.9758C120.454 62.2067 120.434 62.4577 120.325 62.6741H120.325Z" fill="var(--fill-0, white)"/>
</g>
<g id="Group 464">
<path id="Path 37020" d="M26.351 20.6249L34.4204 40.8791C34.5375 41.1726 34.5958 41.4864 34.5919 41.8025C34.5881 42.1186 34.5222 42.4308 34.3979 42.7213C34.2737 43.0118 34.0936 43.2749 33.8679 43.4956C33.6422 43.7162 33.3754 43.8901 33.0826 44.0072L13.4715 51.868C13.1789 51.9855 12.8661 52.044 12.551 52.0401C12.2358 52.0363 11.9246 51.9702 11.6349 51.8455C11.3453 51.7209 11.083 51.5402 10.863 51.3138C10.643 51.0874 10.4697 50.8198 10.353 50.5262L0.225151 25.1039C0.108005 24.8104 0.0496848 24.4967 0.0535269 24.1806C0.0573689 23.8645 0.123297 23.5522 0.247542 23.2617C0.371786 22.9712 0.551909 22.7081 0.777609 22.4874C1.00331 22.2668 1.27016 22.0929 1.56289 21.9758L15.5601 16.3651C15.6747 16.3192 15.7926 16.2817 15.9126 16.253C16.374 16.1471 16.8563 16.1809 17.2986 16.35L24.9732 19.267C25.4275 19.4391 25.8184 19.7464 26.0936 20.1478C26.1981 20.2959 26.2845 20.4561 26.351 20.6249Z" fill="var(--fill-0, #F9FAFD)"/>
<path id="Rectangle 147962" d="M13.8279 20.5378L4.16254 24.4095L4.53452 25.3438L14.1999 21.4721L13.8279 20.5378Z" fill="var(--fill-0, #D6DCE8)"/>
<path id="Rectangle 147963" d="M19.608 43.6373L12.8942 46.3267L13.2662 47.261L19.98 44.5716L19.608 43.6373Z" fill="var(--fill-0, #D6DCE8)"/>
<path id="Rectangle 147964" d="M21.6903 42.8008L20.6636 43.2121L21.0356 44.1464L22.0622 43.7351L21.6903 42.8008Z" fill="var(--fill-0, #D6DCE8)"/>
<path id="Rectangle 147965" d="M10.5452 24.3713L5.02755 26.5815L5.39953 27.5158L10.9171 25.3056L10.5452 24.3713Z" fill="var(--fill-0, #D6DCE8)"/>
<path id="Path 37021" d="M26.0935 20.1484L19.7311 22.6989C19.445 22.8135 19.1252 22.8095 18.8421 22.6877C18.559 22.5659 18.3357 22.3363 18.2214 22.0493L15.9118 16.2536C16.3732 16.1477 16.8555 16.1815 17.2978 16.3506L24.9724 19.2676C25.4269 19.4396 25.8181 19.747 26.0935 20.1484Z" fill="url(#paint5_linear_1138_19936)"/>
<path id="Path 37022" d="M11.669 35.5721C12.1248 36.715 12.9082 37.6967 13.9201 38.3929C14.9321 39.0892 16.1272 39.4689 17.3542 39.4839C18.5813 39.4989 19.7853 39.1486 20.8138 38.4772C21.8424 37.8059 22.6494 36.8437 23.1328 35.7123C23.6162 34.5809 23.7543 33.3311 23.5296 32.121C23.3049 30.9109 22.7275 29.7948 21.8704 28.9139C21.0133 28.033 19.915 27.4267 18.7144 27.1719C17.5139 26.9171 16.2649 27.025 15.1255 27.4822C14.3686 27.7852 13.6787 28.235 13.0952 28.8057C12.5118 29.3765 12.0462 30.057 11.7252 30.8084C11.4041 31.5597 11.2339 32.3672 11.2243 33.1846C11.2147 34.0021 11.3658 34.8134 11.669 35.5721Z" fill="url(#paint6_linear_1138_19936)"/>
<path id="Path 37023" d="M17.9629 34.5983C17.8321 34.6507 17.686 34.6488 17.5566 34.5932C17.4272 34.5375 17.3251 34.4325 17.2729 34.3014C17.2569 34.1893 16.6006 33.1335 17.483 32.2676C17.6407 32.1118 17.7473 31.9116 17.7888 31.6936C17.8303 31.4756 17.8047 31.25 17.7153 31.047C17.601 30.7998 17.3996 30.6037 17.1499 30.4963C16.9003 30.3889 16.6198 30.3779 16.3625 30.4653C16.2248 30.5141 16.0983 30.5904 15.9907 30.6895C15.8831 30.7886 15.7966 30.9085 15.7364 31.042C15.6761 31.1755 15.6434 31.3198 15.6403 31.4663C15.6371 31.6128 15.6635 31.7585 15.7178 31.8945C15.7701 32.0256 15.7683 32.1722 15.7127 32.302C15.6572 32.4318 15.5526 32.5342 15.4218 32.5866C15.2911 32.639 15.1449 32.6372 15.0155 32.5815C14.8861 32.5258 14.7841 32.4208 14.7318 32.2897C14.5876 31.9278 14.544 31.5334 14.6057 31.1486C14.6674 30.7639 14.832 30.4031 15.0821 30.1048C15.3322 29.8066 15.6583 29.582 16.0257 29.4551C16.3931 29.3281 16.7879 29.3036 17.168 29.3841C17.5482 29.4646 17.8994 29.6472 18.1843 29.9122C18.4692 30.1773 18.6769 30.5149 18.7855 30.8891C18.894 31.2633 18.8992 31.6601 18.8006 32.037C18.7019 32.414 18.5031 32.757 18.2254 33.0295C18.1582 33.0947 18.1118 33.1784 18.0921 33.27C18.0724 33.3617 18.0803 33.4571 18.1147 33.5442L18.2584 33.9063C18.3106 34.0374 18.3088 34.1839 18.2534 34.3137C18.198 34.4434 18.0935 34.5458 17.9629 34.5983ZM19.1643 35.6645C19.2174 35.7974 19.2301 35.943 19.2007 36.0831C19.1712 36.2231 19.101 36.3513 18.9989 36.4513C18.8969 36.5513 18.7675 36.6186 18.6272 36.6449C18.487 36.6711 18.3421 36.655 18.2109 36.5985C18.0798 36.5421 17.9683 36.4479 17.8906 36.3279C17.8128 36.2079 17.7723 36.0674 17.7742 35.9243C17.7761 35.7812 17.8203 35.6419 17.9012 35.524C17.982 35.4061 18.096 35.3149 18.2286 35.2619C18.4059 35.1914 18.6039 35.1941 18.7793 35.2696C18.9546 35.345 19.093 35.487 19.1643 35.6645Z" fill="var(--fill-0, white)"/>
</g>
<path id="Path 37024" d="M123.222 122.304H21.0487C19.6874 122.305 18.3392 122.037 17.0812 121.515C15.8232 120.993 14.68 120.228 13.7169 119.263C12.7538 118.298 11.9897 117.152 11.4682 115.891C10.9467 114.629 10.6781 113.277 10.6777 111.912V48.2166C10.6777 46.1966 11.4777 44.2594 12.9016 42.8311C14.3255 41.4028 16.2568 40.6004 18.2706 40.6003H54.1029C55.1607 40.6003 56.2068 40.822 57.1742 41.2512C58.1416 41.6804 59.009 42.3076 59.7206 43.0926L68.0467 52.2775C68.7584 53.0624 69.6258 53.6895 70.5932 54.1186C71.5606 54.5477 72.6067 54.7694 73.6645 54.7693H105.257C107.271 54.7693 109.202 55.5717 110.626 57C112.05 58.4284 112.85 60.3656 112.85 62.3855V111.912C112.85 113.277 113.119 114.629 113.641 115.891C114.162 117.152 114.926 118.298 115.89 119.263C116.853 120.228 117.996 120.993 119.254 121.515C120.512 122.037 121.861 122.305 123.222 122.304Z" fill="url(#paint7_linear_1138_19936)"/>
<g id="Group 465">
<path id="Path 37025" d="M81.845 107.587C78.103 112.915 72.7319 116.875 66.545 118.867C60.3582 120.859 53.6927 120.775 47.558 118.627C45.4881 126.206 41.571 134.678 39.4342 137.726C37.5763 140.337 34.764 142.104 31.6113 142.643C28.4586 143.181 25.2217 142.447 22.6071 140.599C19.9925 138.752 18.2127 135.942 17.6562 132.784C17.0998 129.625 17.8119 126.373 19.637 123.739C21.7737 120.725 28.3063 114.273 34.6605 109.764C26.0136 99.5834 24.9676 84.4803 32.9912 73.061C42.4834 59.532 61.1345 56.2836 74.6336 65.8166C88.1214 75.3603 91.3488 94.0577 81.845 107.587Z" fill="url(#paint8_linear_1138_19936)"/>
<path id="Path 37026" d="M75.4177 103.047C72.9089 106.619 69.4007 109.363 65.3367 110.935C61.2728 112.506 56.8355 112.833 52.5861 111.875C48.3367 110.917 44.4661 108.716 41.4636 105.551C38.4611 102.386 36.4617 98.3995 35.7182 94.0949C34.9747 89.7902 35.5204 85.3611 37.2864 81.3676C39.0524 77.374 41.9594 73.9955 45.6397 71.6591C49.32 69.3228 53.6084 68.1336 57.9625 68.2419C62.3166 68.3503 66.5409 69.7513 70.1012 72.2678C72.4653 73.9385 74.4781 76.06 76.0248 78.5111C77.5715 80.9621 78.6216 83.6948 79.1153 86.553C79.609 89.4112 79.5366 92.339 78.9021 95.1691C78.2677 97.9992 77.0836 100.676 75.4177 103.047Z" fill="url(#paint9_linear_1138_19936)"/>
</g>
<g id="Group 467">
<path id="Path 37027" d="M52.3636 90.6768C52.3641 91.3482 52.1661 92.0048 51.7947 92.5634C51.4232 93.122 50.8949 93.5576 50.2766 93.8151C49.6583 94.0725 48.9778 94.1403 48.3212 94.0098C47.6645 93.8793 47.0611 93.5564 46.5874 93.0819C46.1137 92.6075 45.7909 92.0028 45.6598 91.3443C45.5287 90.6858 45.5952 90.0031 45.851 89.3825C46.1067 88.762 46.5401 88.2314 47.0965 87.858C47.6528 87.4845 48.3071 87.2849 48.9765 87.2844C49.8741 87.2838 50.7353 87.6408 51.3704 88.277C52.0056 88.9132 52.3629 89.7764 52.3636 90.6768Z" fill="var(--fill-0, #989FB0)"/>
<path id="Path 37028" d="M51.0182 91.37C51.0184 91.635 50.9402 91.8942 50.7936 92.1147C50.6469 92.3351 50.4384 92.507 50.1944 92.6087C49.9504 92.7103 49.6818 92.737 49.4226 92.6855C49.1634 92.634 48.9252 92.5065 48.7383 92.3193C48.5513 92.132 48.4239 91.8933 48.3721 91.6334C48.3203 91.3735 48.3466 91.1041 48.4475 90.8591C48.5484 90.6142 48.7195 90.4048 48.9391 90.2573C49.1586 90.1099 49.4169 90.0311 49.6811 90.0309C49.8566 90.0307 50.0303 90.0652 50.1925 90.1324C50.3547 90.1997 50.502 90.2983 50.6262 90.4226C50.7504 90.547 50.8489 90.6946 50.9162 90.8572C50.9834 91.0198 51.0181 91.194 51.0182 91.37Z" fill="var(--fill-0, #F9FAFD)"/>
<path id="Path 37029" d="M68.7518 90.6768C68.7523 91.3482 68.5543 92.0048 68.1829 92.5634C67.8114 93.122 67.2831 93.5576 66.6648 93.8151C66.0465 94.0725 65.366 94.1403 64.7093 94.0098C64.0527 93.8793 63.4493 93.5564 62.9756 93.0819C62.5019 92.6075 62.1791 92.0028 62.048 91.3443C61.9169 90.6858 61.9834 90.0031 62.2391 89.3825C62.4949 88.762 62.9283 88.2314 63.4847 87.858C64.041 87.4845 64.6953 87.2849 65.3647 87.2844C66.2623 87.2838 67.1234 87.6408 67.7586 88.277C68.3938 88.9132 68.7511 89.7764 68.7518 90.6768Z" fill="var(--fill-0, #989FB0)"/>
<path id="Path 37030" d="M67.4064 91.37C67.4066 91.635 67.3284 91.8942 67.1818 92.1147C67.0351 92.3351 66.8266 92.507 66.5826 92.6087C66.3385 92.7103 66.0699 92.737 65.8108 92.6855C65.5516 92.634 65.3134 92.5065 65.1264 92.3193C64.9395 92.132 64.812 91.8933 64.7603 91.6334C64.7085 91.3735 64.7348 91.1041 64.8357 90.8591C64.9366 90.6142 65.1077 90.4048 65.3272 90.2573C65.5468 90.1099 65.805 90.0311 66.0693 90.0309C66.2447 90.0307 66.4185 90.0652 66.5807 90.1324C66.7428 90.1997 66.8902 90.2983 67.0144 90.4226C67.1386 90.547 67.2371 90.6946 67.3043 90.8572C67.3716 91.0198 67.4063 91.194 67.4064 91.37Z" fill="var(--fill-0, #F9FAFD)"/>
<path id="Path 37031" d="M69.3401 85.1247L64.3439 83.2485C64.207 83.1971 64.0816 83.1191 63.9748 83.0191C63.8679 82.919 63.7818 82.7989 63.7213 82.6654C63.6607 82.532 63.627 82.3879 63.622 82.2414C63.617 82.0949 63.6408 81.9488 63.692 81.8115C63.7433 81.6743 63.821 81.5484 63.9207 81.4413C64.0205 81.3341 64.1403 81.2477 64.2733 81.187C64.4063 81.1263 64.55 81.0924 64.696 81.0874C64.8421 81.0824 64.9877 81.1063 65.1246 81.1577L70.1205 83.0341C70.2574 83.0855 70.3828 83.1634 70.4897 83.2634C70.5965 83.3634 70.6827 83.4836 70.7432 83.617C70.8038 83.7504 70.8375 83.8945 70.8426 84.041C70.8476 84.1875 70.8238 84.3335 70.7726 84.4708C70.7214 84.6081 70.6437 84.7339 70.544 84.8411C70.4443 84.9482 70.3245 85.0347 70.1915 85.0954C70.0585 85.1561 69.9149 85.19 69.7688 85.1951C69.6228 85.2001 69.4771 85.1763 69.3403 85.1249L69.3401 85.1247Z" fill="var(--fill-0, #989FB0)"/>
<g id="Group 466">
<path id="Path 37032" d="M44.0597 84.4709C44.0084 84.3336 43.9846 84.1875 43.9897 84.041C43.9947 83.8945 44.0284 83.7505 44.089 83.617C44.1495 83.4836 44.2357 83.3635 44.3425 83.2634C44.4494 83.1634 44.5748 83.0855 44.7117 83.0341L49.7076 81.1579C49.984 81.0541 50.2902 81.0647 50.5588 81.1874C50.8274 81.31 51.0365 81.5347 51.1399 81.812C51.2434 82.0892 51.2328 82.3964 51.1105 82.6658C50.9882 82.9352 50.7642 83.1449 50.4878 83.2487L45.4919 85.1249C45.3551 85.1763 45.2095 85.2002 45.0634 85.1951C44.9174 85.1901 44.7737 85.1562 44.6407 85.0955C44.5077 85.0348 44.388 84.9483 44.2883 84.8412C44.1886 84.734 44.1109 84.6082 44.0597 84.4709Z" fill="var(--fill-0, #989FB0)"/>
</g>
</g>
<path id="Path 37033" d="M60.0881 97.6632C60.0881 98.7539 58.8919 98.9795 57.4162 98.9795C55.9405 98.9795 54.7442 98.7537 54.7442 97.6632C54.7442 96.5801 55.9403 95.457 57.4162 95.457C58.892 95.457 60.0881 96.5803 60.0881 97.6632Z" fill="var(--fill-0, #989FB0)"/>
<g id="Group 468">
<path id="Path 37034" d="M127.584 12.9028C127.311 13.5147 127.224 14.1942 127.335 14.8555C127.446 15.5169 127.749 16.1306 128.207 16.6191C128.665 17.1077 129.257 17.4493 129.909 17.6009C130.56 17.7525 131.241 17.7073 131.867 17.471C132.493 17.2346 133.035 16.8178 133.425 16.273C133.814 15.7281 134.035 15.0797 134.058 14.4095C134.081 13.7392 133.906 13.0771 133.554 12.5067C133.202 11.9362 132.69 11.4829 132.082 11.204C131.676 11.0188 131.237 10.9159 130.791 10.901C130.345 10.8862 129.9 10.9598 129.482 11.1176C129.064 11.2754 128.682 11.5143 128.356 11.8206C128.03 12.1269 127.768 12.4947 127.584 12.9028ZM122.598 6.24385C122.423 6.63336 122.368 7.06591 122.439 7.48695C122.509 7.908 122.702 8.29869 122.994 8.60976C123.285 8.92083 123.662 9.13835 124.077 9.23491C124.491 9.33146 124.925 9.30272 125.323 9.15231C125.722 9.00189 126.067 8.73654 126.315 8.38971C126.563 8.04288 126.704 7.6301 126.718 7.20342C126.733 6.77674 126.621 6.35525 126.397 5.99211C126.174 5.62897 125.848 5.34043 125.461 5.16288C125.202 5.04503 124.922 4.97952 124.639 4.97007C124.355 4.96063 124.072 5.00745 123.806 5.10786C123.54 5.20826 123.296 5.36028 123.089 5.5552C122.882 5.75013 122.715 5.98414 122.598 6.24385ZM9.48095 136.988C9.04727 137.498 8.77396 138.126 8.69548 138.792C8.61699 139.458 8.73685 140.133 9.03993 140.731C9.34301 141.328 9.81575 141.823 10.3985 142.151C10.9813 142.48 11.6481 142.628 12.3148 142.578C12.9815 142.527 13.6182 142.279 14.1448 141.866C14.6713 141.452 15.0641 140.892 15.2735 140.255C15.483 139.618 15.4998 138.933 15.3218 138.287C15.1438 137.64 14.7789 137.061 14.2733 136.622C13.9349 136.33 13.5424 136.108 13.1182 135.968C12.6941 135.829 12.2467 135.774 11.8015 135.808C11.3564 135.842 10.9223 135.964 10.5241 136.166C10.1259 136.369 9.77142 136.648 9.48095 136.988ZM6.55592 129.194C6.27981 129.519 6.10578 129.918 6.05577 130.342C6.00577 130.766 6.08203 131.196 6.27494 131.576C6.46785 131.957 6.76878 132.271 7.13977 132.481C7.51077 132.69 7.93523 132.784 8.35963 132.752C8.78403 132.72 9.18937 132.562 9.52455 132.299C9.85973 132.036 10.1097 131.679 10.2431 131.273C10.3764 130.868 10.387 130.432 10.2737 130.02C10.1603 129.609 9.92804 129.24 9.60612 128.961C9.39073 128.775 9.14091 128.634 8.87096 128.545C8.60101 128.456 8.31622 128.421 8.03291 128.443C7.74959 128.464 7.47331 128.542 7.21987 128.671C6.96643 128.8 6.74081 128.977 6.55592 129.194ZM129.988 130.278C129.554 130.788 129.281 131.416 129.203 132.082C129.124 132.748 129.244 133.422 129.547 134.02C129.85 134.618 130.323 135.112 130.906 135.441C131.489 135.77 132.155 135.918 132.822 135.867C133.489 135.816 134.125 135.568 134.652 135.155C135.178 134.742 135.571 134.181 135.781 133.545C135.99 132.908 136.007 132.223 135.829 131.576C135.651 130.93 135.286 130.351 134.78 129.912C134.442 129.62 134.05 129.398 133.626 129.258C133.201 129.118 132.754 129.064 132.309 129.098C131.864 129.131 131.43 129.253 131.031 129.456C130.633 129.658 130.279 129.937 129.988 130.277V130.278Z" fill="var(--fill-0, #D6DCE8)"/>
</g>
</g>
<defs>
<linearGradient id="paint0_linear_1138_19936" x1="-492.437" y1="58.5252" x2="-492.357" y2="40.8781" gradientUnits="userSpaceOnUse">
<stop stop-color="#989FB0"/>
<stop offset="1" stop-color="#AAB2C5"/>
</linearGradient>
<linearGradient id="paint1_linear_1138_19936" x1="-431.013" y1="-112.033" x2="-418.101" y2="-112.033" gradientUnits="userSpaceOnUse">
<stop stop-color="#D6DCE8"/>
<stop offset="1" stop-color="white"/>
</linearGradient>
<linearGradient id="paint2_linear_1138_19936" x1="-448.824" y1="-91.5944" x2="-428.809" y2="-91.5944" gradientUnits="userSpaceOnUse">
<stop stop-color="#989FB0"/>
<stop offset="1" stop-color="#AAB2C5"/>
</linearGradient>
<linearGradient id="paint3_linear_1138_19936" x1="-912.086" y1="-97.2724" x2="-901.92" y2="-97.2724" gradientUnits="userSpaceOnUse">
<stop stop-color="#D6DCE8"/>
<stop offset="1" stop-color="white"/>
</linearGradient>
<linearGradient id="paint4_linear_1138_19936" x1="-925.922" y1="-81.2099" x2="-910.184" y2="-81.2099" gradientUnits="userSpaceOnUse">
<stop stop-color="#989FB0"/>
<stop offset="1" stop-color="#AAB2C5"/>
</linearGradient>
<linearGradient id="paint5_linear_1138_19936" x1="767.988" y1="496.187" x2="776.001" y2="496.187" gradientUnits="userSpaceOnUse">
<stop stop-color="#D6DCE8"/>
<stop offset="1" stop-color="white"/>
</linearGradient>
<linearGradient id="paint6_linear_1138_19936" x1="756.706" y1="508.71" x2="769.116" y2="508.71" gradientUnits="userSpaceOnUse">
<stop stop-color="#989FB0"/>
<stop offset="1" stop-color="#AAB2C5"/>
</linearGradient>
<linearGradient id="paint7_linear_1138_19936" x1="71.3391" y1="49.1792" x2="67.886" y2="102.567" gradientUnits="userSpaceOnUse">
<stop stop-color="#D6DCE8"/>
<stop offset="1" stop-color="white"/>
</linearGradient>
<linearGradient id="paint8_linear_1138_19936" x1="58.4619" y1="117.497" x2="42.918" y2="99.7794" gradientUnits="userSpaceOnUse">
<stop stop-color="#989FB0"/>
<stop offset="1" stop-color="#AAB2C5"/>
</linearGradient>
<linearGradient id="paint9_linear_1138_19936" x1="35.3949" y1="90.324" x2="79.4385" y2="90.324" gradientUnits="userSpaceOnUse">
<stop stop-color="#D6DCE8"/>
<stop offset="1" stop-color="#F1F3F9"/>
</linearGradient>
</defs>
</svg>
