<svg width="56" height="56" viewBox="0 0 56 56" fill="none" xmlns="http://www.w3.org/2000/svg">
<g clip-path="url(#clip0_498_19512)">
<path fill-rule="evenodd" clip-rule="evenodd" d="M35.778 16.3594C33.4757 14.8211 30.7689 14 28 14V0C33.5378 0 38.9514 1.64217 43.556 4.71885C48.1606 7.79552 51.7493 12.1685 53.8686 17.2848C55.9878 22.4011 56.5424 28.0311 55.462 33.4625C54.3816 38.894 51.7149 43.8831 47.7989 47.7989C43.8831 51.7149 38.894 54.3816 33.4625 55.462C28.0311 56.5424 22.4011 55.9878 17.2848 53.8686C12.1685 51.7493 7.79552 48.1606 4.71885 43.556C1.64217 38.9514 0 33.5378 0 28H14C14 30.7689 14.8211 33.4757 16.3594 35.778C17.8977 38.0803 20.0843 39.8747 22.6425 40.9343C25.2006 41.994 28.0155 42.2712 30.7313 41.7309C33.447 41.1908 35.9415 39.8574 37.8995 37.8995C39.8574 35.9415 41.1908 33.447 41.7309 30.7313C42.2712 28.0155 41.994 25.2006 40.9343 22.6425C39.8747 20.0843 38.0803 17.8977 35.778 16.3594Z" fill="#1E8CAB"/>
<path fill-rule="evenodd" clip-rule="evenodd" d="M14 6.06375e-06C14 1.83851 13.6379 3.65901 12.9343 5.35756C12.2308 7.05613 11.1995 8.59947 9.89948 9.8995C8.59949 11.1995 7.05613 12.2308 5.35756 12.9343C3.659 13.6379 1.83851 14 6.11954e-07 14L0 28C3.67702 28 7.31801 27.2758 10.7152 25.8686C14.1123 24.4615 17.199 22.399 19.7989 19.7989C22.399 17.199 24.4615 14.1123 25.8686 10.7151C27.2758 7.31801 28 3.677 28 0L14 6.06375e-06Z" fill="#1E8CAB"/>
</g>
<defs>
<clipPath id="clip0_498_19512">
<rect width="56" height="56" fill="white"/>
</clipPath>
</defs>
</svg>
