<svg width="64" height="14" viewBox="0 0 64 14" fill="none" xmlns="http://www.w3.org/2000/svg">
<g clip-path="url(#clip0_1018_16852)">
<path fill-rule="evenodd" clip-rule="evenodd" d="M5.45455 4.2C4.97233 4.2 4.50985 4.38438 4.16891 4.71257C3.82793 5.04074 3.63636 5.48587 3.63636 5.95V14H0V5.95C0 3.0506 2.44218 0.7 5.45455 0.7H9.45455V4.2H5.45455ZM16.3636 10.5C15.9339 10.5 15.5083 10.4185 15.1112 10.2602C14.7141 10.1019 14.3534 9.86989 14.0495 9.5774C13.7456 9.28487 13.5045 8.93763 13.34 8.55547C13.1756 8.17327 13.0909 7.76367 13.0909 7.35C13.0909 6.93634 13.1756 6.52673 13.34 6.14453C13.5045 5.76237 13.7456 5.41513 14.0495 5.1226C14.3534 4.8301 14.7141 4.59809 15.1112 4.43979C15.5083 4.28148 15.9339 4.2 16.3636 4.2C17.2316 4.2 18.064 4.53187 18.6778 5.1226C19.2916 5.71336 19.6364 6.51459 19.6364 7.35C19.6364 8.18542 19.2916 8.98664 18.6778 9.5774C18.064 10.1681 17.2316 10.5 16.3636 10.5ZM9.45455 7.35C9.45455 11.0226 12.548 14 16.3636 14C20.1793 14 23.2727 11.0226 23.2727 7.35C23.2727 3.67745 20.1793 0.7 16.3636 0.7C12.548 0.7 9.45455 3.67745 9.45455 7.35ZM55.6364 10.5C54.7684 10.5 53.936 10.1681 53.3222 9.5774C52.7084 8.98664 52.3636 8.18542 52.3636 7.35C52.3636 6.51459 52.7084 5.71336 53.3222 5.1226C53.936 4.53187 54.7684 4.2 55.6364 4.2C56.5044 4.2 57.3367 4.53187 57.9505 5.1226C58.5644 5.71336 58.9091 6.51459 58.9091 7.35C58.9091 8.18542 58.5644 8.98664 57.9505 9.5774C57.3367 10.1681 56.5044 10.5 55.6364 10.5ZM48.7273 7.35C48.7273 11.0226 51.8207 14 55.6364 14C59.452 14 62.5455 11.0226 62.5455 7.35C62.5455 3.67745 59.452 0.7 55.6364 0.7C51.8207 0.7 48.7273 3.67745 48.7273 7.35ZM30.9091 14C27.0935 14 24 11.0226 24 7.35C24 3.67745 27.0935 0.7 30.9091 0.7H41.0909C41.8069 0.7 42.4975 0.805 43.1469 0.999599L45.0909 0L47.1884 3.7814C47.7211 4.74401 48 5.81795 48 6.90865V7.35C48 11.0226 44.9065 14 41.0909 14H30.9091ZM44.3636 7.35C44.3636 8.18542 44.0189 8.98664 43.4051 9.5774C42.7913 10.1681 41.9589 10.5 41.0909 10.5H30.9091C30.4793 10.5 30.0537 10.4185 29.6567 10.2602C29.2596 10.1019 28.8988 9.86989 28.5949 9.5774C28.291 9.28487 28.05 8.93763 27.8855 8.55547C27.721 8.17327 27.6364 7.76367 27.6364 7.35C27.6364 6.93634 27.721 6.52673 27.8855 6.14453C28.05 5.76237 28.291 5.41513 28.5949 5.1226C28.8988 4.8301 29.2596 4.59809 29.6567 4.43979C30.0537 4.28148 30.4793 4.2 30.9091 4.2H41.0909C41.9545 4.19997 42.7833 4.52847 43.396 5.11392C44.0091 5.6994 44.3571 6.49432 44.3636 7.3255V7.35Z" fill="#D4D5D8"/>
<path d="M64.0001 13.125C64.0001 12.8929 63.9044 12.6704 63.7339 12.5063C63.5633 12.3422 63.3321 12.25 63.091 12.25C62.8499 12.25 62.6186 12.3422 62.4481 12.5063C62.2775 12.6704 62.1819 12.8929 62.1819 13.125C62.1819 13.3571 62.2775 13.5796 62.4481 13.7437C62.6186 13.9078 62.8499 14 63.091 14C63.3321 14 63.5633 13.9078 63.7339 13.7437C63.9044 13.5796 64.0001 13.3571 64.0001 13.125Z" fill="#D4D5D8"/>
</g>
<defs>
<clipPath id="clip0_1018_16852">
<rect width="64" height="14" fill="white" transform="matrix(1 0 0 -1 0 14)"/>
</clipPath>
</defs>
</svg>
